<svg width="24" height="24" viewBox="0 0 24 24" fill="none" xmlns="http://www.w3.org/2000/svg">
	<path
		fill-rule="evenodd"
		clip-rule="evenodd"
		d="M8.30738 5.7575C8.30738 6.3383 8.77832 6.80847 9.35912 6.80847H9.96297C10.543 6.80847 11.0139 7.27941 11.0139 7.86021V9.96293C11.0139 10.543 10.543 11.0139 9.96297 11.0139H7.86025C7.72217 11.014 7.58542 10.9869 7.45783 10.9341C7.33023 10.8814 7.21428 10.804 7.1166 10.7064C7.01893 10.6087 6.94145 10.4929 6.88858 10.3653C6.83572 10.2377 6.80851 10.101 6.80851 9.96293V9.35908C6.80851 8.77828 6.33834 8.30811 5.75754 8.30811H3.05097C2.77224 8.30811 2.50492 8.19738 2.30782 8.00028C2.11073 7.80319 2 7.53587 2 7.25713V3.05324C2 2.47167 2.47017 2.00073 3.05097 2.00073H7.2564C7.8372 2.00073 8.30738 2.47167 8.30738 3.05247V5.7575Z"
		fill="#1A8D73"
	/>
	<path
		fill-rule="evenodd"
		clip-rule="evenodd"
		d="M18.2425 8.3075C17.6617 8.3075 17.1915 8.77844 17.1915 9.35924L17.1915 9.96309C17.1915 10.5431 16.7206 11.0141 16.1398 11.0141L14.0371 11.0141C13.457 11.0141 12.9861 10.5431 12.9861 9.96309L12.9861 7.86037C12.986 7.72229 13.0131 7.58555 13.0659 7.45795C13.1186 7.33035 13.196 7.2144 13.2936 7.11673C13.3912 7.01905 13.5071 6.94157 13.6347 6.88871C13.7623 6.83584 13.899 6.80863 14.0371 6.80863L14.6409 6.80863C15.2217 6.80863 15.6919 6.33846 15.6919 5.75766L15.6919 3.05109C15.6919 2.77236 15.8026 2.50504 15.9997 2.30794C16.1968 2.11085 16.4641 2.00012 16.7429 2.00012L20.9468 2.00012C21.5283 2.00012 21.9993 2.47029 21.9993 3.0511L21.9993 7.25652C21.9993 7.83733 21.5283 8.3075 20.9475 8.3075L18.2425 8.3075Z"
		fill="#BCE784"
	/>
	<path
		fill-rule="evenodd"
		clip-rule="evenodd"
		d="M15.6926 18.2434C15.6926 17.6626 15.2217 17.1924 14.6409 17.1924L14.037 17.1924C13.457 17.1924 12.9861 16.7214 12.9861 16.1406L12.9861 14.0379C12.9861 13.4579 13.457 12.987 14.037 12.987L16.1397 12.987C16.2778 12.9869 16.4146 13.014 16.5422 13.0667C16.6698 13.1195 16.7857 13.1969 16.8834 13.2945C16.9811 13.3921 17.0586 13.508 17.1114 13.6356C17.1643 13.7631 17.1915 13.8998 17.1915 14.0379L17.1915 14.6418C17.1915 15.2226 17.6617 15.6927 18.2425 15.6927L20.949 15.6927C21.2278 15.6927 21.4951 15.8035 21.6922 16.0006C21.8893 16.1977 22 16.465 22 16.7437L22 20.9476C22 21.5292 21.5298 22.0001 20.949 22.0001L16.7436 22.0001C16.1628 22.0001 15.6926 21.5292 15.6926 20.9484L15.6926 18.2434Z"
		fill="#5DD39E"
	/>
	<path
		fill-rule="evenodd"
		clip-rule="evenodd"
		d="M5.75677 15.6932C6.33757 15.6932 6.80774 15.2223 6.80774 14.6415L6.80774 14.0376C6.80774 13.4576 7.27868 12.9867 7.85948 12.9867L9.9622 12.9867C10.5422 12.9867 11.0132 13.4576 11.0132 14.0376L11.0132 16.1404C11.0133 16.2784 10.9862 16.4152 10.9334 16.5428C10.8806 16.6704 10.8032 16.7863 10.7056 16.884C10.608 16.9817 10.4921 17.0592 10.3646 17.112C10.237 17.1649 10.1003 17.1921 9.9622 17.1921L9.35835 17.1921C8.77755 17.1921 8.30738 17.6623 8.30738 18.2431L8.30738 20.9496C8.30738 21.2284 8.19665 21.4957 7.99955 21.6928C7.80246 21.8899 7.53514 22.0006 7.2564 22.0006L3.05251 22.0006C2.47094 22.0006 2 21.5304 2 20.9496L2 16.7442C2 16.1634 2.47094 15.6932 3.05174 15.6932L5.75677 15.6932Z"
		fill="#0072C4"
	/>
</svg>
